<?xml version="1.0" encoding="utf-8"?>
<!-- Generator: Adobe Illustrator 27.2.0, SVG Export Plug-In . SVG Version: 6.00 Build 0)  -->
<svg version="1.1" id="Layer_2_00000008867119556527329310000003278962934628815289_"
	 xmlns="http://www.w3.org/2000/svg" xmlns:xlink="http://www.w3.org/1999/xlink" x="0px" y="0px" viewBox="0 0 228.6 91.3"
	 style="enable-background:new 0 0 228.6 91.3;" xml:space="preserve">
<style type="text/css">
	.st0{fill:#FFFFFF;}
</style>
<g id="Layer_1-2">
	<path class="st0" d="M186.8,0c-12.5,0-24.2,5-33.1,13.1c-0.9,0.8-2.2,0.7-3-0.1C143.1,5,132.2,0,119.8,0
		c-13.2,0-25.6,5.6-34.7,14.6c-0.9,0.9-2.4,0.9-3.2-0.1C74.4,5.6,63,0,49.8,0C24.6,0,2.4,20.4,0.2,45.7C-2,70.9,16.6,91.3,41.8,91.3
		c13.2,0,25.6-5.6,34.7-14.6c0.9-0.9,2.4-0.9,3.2,0.1c7.6,8.9,18.9,14.5,32.1,14.5c12.5,0,24.2-5,33.1-13.2c0.9-0.8,2.2-0.7,3,0.1
		c7.5,8.1,18.4,13,30.8,13c25.2,0,47.4-20.4,49.6-45.7C230.6,20.4,212,0,186.8,0z"/>
</g>
</svg>
