<?xml version="1.0" encoding="UTF-8"?>
<svg id="Layer_2" xmlns="http://www.w3.org/2000/svg" viewBox="0 0 352.21 325.12">
  <defs>
    <style>.cls-1{fill:#1d1d1b;}</style>
  </defs>
  <g id="full_logo_schwarz">
    <path class="cls-1" d="M0,138.86l32.92,103.19L162.05,116.68h-.37L23.68,100.24,0,138.86Z" />
    <path class="cls-1" d="M162,116.86h0l-23.2-92.83-47.8-5.89-.14-.14L11.53,83.76l150.47,33.1Z" />
    <path class="cls-1" d="M176,175.38v.29h0L195.7,.29l-39.28-.29,19.58,175.38Z" />
    <path class="cls-1" d="M352.18,138.86l-32.89,103.19L190.16,116.68h.37l137.94-16.44,23.74,38.57-.03,.05Z" />
    <polygon class="cls-1" points="176.17 194.43 176.1 194.38 176.04 194.43 176.04 194.44 176.1 194.41 176.17 194.44 176.17 194.43" />
    <path class="cls-1" d="M190.34,116.85l-14.16,77.53h-.18l-14.16-77.53-93.25,106.06h.06l13.18,34.19,.07-.05,94.21,68.07,94.2-68.12,.07,.05,13.18-34.19h.06l-93.28-106.01Zm-14.34,77.59h0l.07-.05,.06,.05h-.13Z" />
    <path class="cls-1" d="M190.17,116.86h0l23.2-92.83,47.9-5.92,.1-.15,79.33,65.77-150.53,33.13Z" />
  </g>
</svg>
