<svg xmlns="http://www.w3.org/2000/svg" viewBox="0 0 1280 325.1"><defs><style>.cls-1{fill:#4b4a4b;}.cls-2{fill:#801710;}.cls-3{fill:#4d4c4c;}.cls-4{fill:#e52521;}</style></defs><g id="full_logo_farbig" data-name="full logo farbig"><path class="cls-1" d="M821.93,107.87h7.8l20.45-50.54h-9.73L826.22,95.52l-13.8-38.19H802.05Z"/><path class="cls-1" d="M900.9,107.87h34.83V99.73H909.91V86h23.24V77.89H909.91V65.47h24.53V57.33H900.9Z"/><path class="cls-1" d="M989.88,107.87h9V86.45h6.58l11.73,21.42h10.87l-13.44-22.34a13.12,13.12,0,0,0,8.69-4.5,14.09,14.09,0,0,0,3-9.21,14.26,14.26,0,0,0-1.57-7.07,12.1,12.1,0,0,0-4.22-4.42,17.89,17.89,0,0,0-6-2.32,36.07,36.07,0,0,0-7-.68h-17.6Zm9-29.13V65h7.8a31.06,31.06,0,0,1,3.54.21,11.2,11.2,0,0,1,3.32.9,5.67,5.67,0,0,1,2.43,2,6.13,6.13,0,0,1,.93,3.57,6.55,6.55,0,0,1-1,3.89,5.93,5.93,0,0,1-2.61,2.07,11.93,11.93,0,0,1-3.54.86c-1.28.12-2.57.17-3.86.17Z"/><path class="cls-1" d="M1080.22,107.87h34.83V99.73h-25.81V86h23.24V77.89h-23.24V65.47h24.52V57.33h-33.54Z"/><path class="cls-1" d="M1169,107.87h9V57.33h-9Z"/><path class="cls-1" d="M1234.38,107.87h9V69.11h.14l25,38.76H1280V57.33h-9V94.88h-.14l-24.53-37.55h-11.94Z"/><path class="cls-1" d="M442.48,107.87h9V65.47H472V57.33H421.45v8.14h21Z"/><path class="cls-1" d="M559,57.33h-9V89a14.36,14.36,0,0,1-.57,3.89,10.9,10.9,0,0,1-1.9,3.75,10.18,10.18,0,0,1-3.5,2.82,13.69,13.69,0,0,1-10.8,0,10.18,10.18,0,0,1-3.5-2.82,10.73,10.73,0,0,1-1.9-3.75,14.36,14.36,0,0,1-.57-3.89V57.33h-9v32a21.08,21.08,0,0,0,1.54,8.24,17.7,17.7,0,0,0,4.29,6.25,19.28,19.28,0,0,0,6.47,4,24.18,24.18,0,0,0,16.16,0,19,19,0,0,0,6.44-4,18.51,18.51,0,0,0,4.29-6.25A20.91,20.91,0,0,0,559,89.31Z"/><path class="cls-1" d="M615.36,107.87h9V86.45H631l11.73,21.42h10.87L640.11,85.53a13.07,13.07,0,0,0,8.68-4.5,14,14,0,0,0,3-9.21,14.26,14.26,0,0,0-1.57-7.07A12.18,12.18,0,0,0,646,60.33,17.89,17.89,0,0,0,640,58a36.1,36.1,0,0,0-7-.68H615.36Zm9-29.13V65h7.8a31.06,31.06,0,0,1,3.54.21,11.2,11.2,0,0,1,3.32.9,5.78,5.78,0,0,1,2.43,2,6.2,6.2,0,0,1,.93,3.57,6.55,6.55,0,0,1-1,3.89,5.93,5.93,0,0,1-2.61,2.07,11.93,11.93,0,0,1-3.54.86c-1.28.12-2.57.17-3.86.17Z"/><path class="cls-1" d="M705.7,107.87h9V69.11h.15l25,38.76h11.44V57.33h-9V94.88h-.15L717.65,57.33H705.7Z"/><path class="cls-2" d="M0,138.86,32.92,242.05,162.05,116.68l-.37,0-138-16.44L0,138.86Z"/><path class="cls-2" d="M176,194.47l.06,0v0l.13-.09-.14,0-14.16-77.53L68.59,222.91l.06,0,13.18,34.19.07-.05h0l94.21,68.07V194.41l-.13.06Z"/><path class="cls-2" d="M162,116.86l0,0-23.2-92.83L91,18.14,90.86,18,11.53,83.76Z"/><path class="cls-3" d="M176,175.38V176l0-.33v0L195.7.29,156.42,0,176,175.38Z"/><path class="cls-4" d="M352.18,138.86,319.29,242.05,190.16,116.68l.37,0,137.94-16.44,23.74,38.57Z"/><path class="cls-4" d="M283.56,222.89l-13.18,34.19-.07-.05h0l-94.2,68.07V194.41l.12.06-.06,0v0l-.13-.09.14,0,14.16-77.53,93.28,106.06-.06,0Z"/><path class="cls-4" d="M190.17,116.86l0,0,23.2-92.83,47.9-5.92.1-.15,79.33,65.77Z"/><path class="cls-4" d="M421.45,245.92h15.82V206.74h41.56v39.18h15.82V157H478.83v35.41H437.27V157H421.45ZM604.51,157H588.69v55.75a25.24,25.24,0,0,1-1,6.84,19.37,19.37,0,0,1-3.32,6.6,17.89,17.89,0,0,1-6.16,5,24.13,24.13,0,0,1-19,0,18,18,0,0,1-6.15-5,19,19,0,0,1-3.32-6.6,25.24,25.24,0,0,1-1-6.84V157H532.94v56.25a37.37,37.37,0,0,0,2.7,14.51,31.35,31.35,0,0,0,7.53,11,33.87,33.87,0,0,0,11.37,7,42.29,42.29,0,0,0,28.37,0,33.18,33.18,0,0,0,11.3-7,32.61,32.61,0,0,0,7.54-11,36.66,36.66,0,0,0,2.76-14.51Zm56.5,88.9h15.82V171.34h27.24V157H633.76v14.32H661Zm90.9,0h15.82V171.34H795V157H724.66v14.32h27.25Zm89,0h14.56l20.6-67.68h.25l20.59,67.68H912L937.86,157H921.79l-17.45,64h-.26L884.5,157H868.93l-20,64h-.26L832,157H814.69Zm125.31,0h15.82V157H966.24Zm54.11,0H1074V231.6h-37.79V157h-15.82Zm84,0h61.14V231.6h-45.32V207.5H1161V193.18h-40.8V171.34h43.06V157h-58.88Zm95.55,0h15.82V177.74h.25l43.94,68.18H1280V157h-15.82v66h-.25l-43.07-66h-21Z"/><rect class="cls-4" x="557.31" y="157.02" width="9.02" height="14.66"/><rect class="cls-4" x="571.11" y="157.02" width="9.02" height="14.66"/></g></svg>